<?xml version="1.0" encoding="UTF-8" standalone="no"?>
<!-- Created with Inkscape (http://www.inkscape.org/) -->

<svg
   width="25"
   height="25"
   viewBox="0 0 6.6145832 6.6145835"
   version="1.1"
   id="svg5"
   inkscape:version="1.1.1 (3bf5ae0d25, 2021-09-20)"
   sodipodi:docname="favicon.svg"
   xmlns:inkscape="http://www.inkscape.org/namespaces/inkscape"
   xmlns:sodipodi="http://sodipodi.sourceforge.net/DTD/sodipodi-0.dtd"
   xmlns="http://www.w3.org/2000/svg"
   xmlns:svg="http://www.w3.org/2000/svg">
  <sodipodi:namedview
     id="namedview7"
     pagecolor="#505050"
     bordercolor="#ffffff"
     borderopacity="1"
     inkscape:pageshadow="0"
     inkscape:pageopacity="0"
     inkscape:pagecheckerboard="1"
     inkscape:document-units="px"
     showgrid="false"
     units="px"
     inkscape:zoom="22.627417"
     inkscape:cx="-4.5961941"
     inkscape:cy="12.750019"
     inkscape:window-width="2503"
     inkscape:window-height="1371"
     inkscape:window-x="57"
     inkscape:window-y="32"
     inkscape:window-maximized="1"
     inkscape:current-layer="layer1" />
  <defs
     id="defs2" />
  <g
     inkscape:label="Layer 1"
     inkscape:groupmode="layer"
     id="layer1">
    <g
       id="g1578"
       transform="matrix(0.03716149,0,0,0.03716149,-0.80984957,0.55828706)">
      <path
         style="fill:#f7e094;stroke-width:0.264583"
         d="m 126.10553,120.42986 -6.12292,-7.33894 v -10.7923 c 0,-8.317991 -0.0758,-10.852241 -0.33073,-11.053771 -0.57431,-0.45405 -14.19931,-4.719008 -14.48353,-4.543348 l 0.26217,-17.169422 v -7.53486 l -10.515518,-6.85271 c -4.573827,-2.980654 -3.340596,-8.874615 -3.340596,-8.938315 0,-0.20413 -6.774708,-10.005484 6.193729,-1.413728 0.522982,0.346482 14.279745,-1.073613 29.268385,2.056737 14.98865,3.13036 28.9,7.44975 29.22742,7.59011 0.5937,0.25451 -0.62658,3.722917 -0.62658,10.045787 0,3.74408 0.73776,7.745024 1.02344,8.275009 0.866,1.606574 -9.75941,-0.537823 -18.7337,-1.717393 -10.13299,-1.33188 -17.31104,-4.682137 -17.46482,-4.528357 -0.15377,0.15378 2.16771,2.723018 5.9737,6.72482 l 6.72275,7.06863 c -0.7987,15.294011 -0.34518,33.132381 -0.51365,46.564861 l -6.53961,-6.44281 z"
         id="path1584"
         sodipodi:nodetypes="ccsscccsssssssssscccc" />
      <path
         style="fill:#f3c74b;stroke-width:0.264583"
         d="m 132.64473,126.87263 c -0.097,-0.25284 -0.18062,-10.83818 -0.18577,-23.52297 l -0.009,-23.063251 0.70877,0.0214 20.99445,-9.67863 c 0.14929,-0.0923 0.27593,-2.89187 0.27593,-6.63594 0,-6.32288 -0.0266,-6.20548 -0.23571,-6.58439 l -48.76288,4.58837 0.57984,7.62452 c 0.31425,4.13224 -0.0792,14.00225 -0.17608,21.90683 l -0.17609,14.371981 -5.84318,-0.17254 c -18.49212,-0.54606 -35.39996,-3.94205 -45.98784,-9.236801 -3.57912,-1.78983 -5.67369,-3.41151 -7.61264,-5.89392 -0.34441,-0.44095 -1.34742,-3.36218 -1.40258,-22.65525 -0.0621,-21.73432 0.199324,-22.657892 0.673164,-21.623232 3.09799,6.76435 23.383296,13.984882 45.824766,15.640152 8.58808,0.63344 13.17849,0.12272 13.17849,0.12272 0.94215,-0.0845 49.70503,-4.67283 49.70503,-4.67283 1.09056,0.21315 3.77521,-1.46907 6.17486,-3.88025 2.83265,-2.84626 3.99872,-4.9212 4.24494,-7.55357 0.0953,-1.01865 0.1907,4.48208 0.21204,12.22383 0.0361,13.09099 1.01335,14.01228 1.44397,14.28916 0.41451,0.26651 0.40757,0.27855 -0.0661,0.11484 -1.133,-0.39155 -2.5629,-0.61931 -7.40833,-1.18005 -0.60576,-0.009 -1.20299,-0.004 -1.79145,0.0138 -0.98686,0.0298 -2.85015,-0.80743 -2.85015,-0.80743 l -20.99445,9.67863 c 0.75349,0.30079 16.11426,-2.839273 23.91162,-3.825203 8.42645,-1.06548 22.73641,-1.278777 22.34434,-1.913157 -0.0803,-0.12987 0.27845,-0.23613 0.79714,-0.23613 h 0.94308 l -0.0676,23.58771 -0.0676,23.587711 -0.57476,0.0877 c -0.31612,0.0482 -1.5905,0.38205 -2.83194,0.74181 -8.77359,2.54249 -23.82207,4.43169 -38.41949,4.82322 -5.89936,0.15823 -6.38511,0.13681 -6.54844,-0.2888 z m 31.03018,-85.546111 c -1.12557,-1.22562 -1.14085,-1.20269 0.0804,-0.0804 0.54571,0.50149 0.99219,0.94797 0.99219,0.99218 0,0.20205 -0.2239,0.0117 -1.07258,-0.91179 z M 48.33083,40.895889 c 0,-0.0549 0.20836,-0.2633 0.46302,-0.46302 0.41964,-0.32911 0.429,-0.31975 0.0999,0.0999 -0.34564,0.44073 -0.56292,0.58089 -0.56292,0.36312 z"
         id="path1582"
         sodipodi:nodetypes="cccccsccsscsssscsccssssscsccssscccsssccscscsssss" />
      <path
         style="fill:#edae4a;stroke-width:0.264583"
         d="m 132.51729,80.126553 c -0.4987,-0.326147 -12.29207,-13.71372 -12.29207,-13.968122 12.46584,1.748352 25.90538,3.372743 38.70978,5.281849 3.14912,0.469679 6.01865,0.805151 6.35,0.944036 0.33134,0.138885 3.45235,0.62072 6.93556,1.070745 6.65445,0.859739 8.04385,1.021192 7.0064,1.408298 -6.23342,2.325905 -23.50086,4.56667 -38.73952,5.199035 -7.53244,0.312576 -7.58958,0.313037 -7.97015,0.06415 z M 98.075135,62.829487 C 75.67331,61.912833 54.888742,55.869588 47.58864,49.040701 44.401716,46.05949 44.358234,44.350255 47.391766,41.301747 53.254019,35.410554 73.083823,30.28596 94.979112,29.003804 c 24.836978,-1.454418 52.601598,2.772146 64.820158,9.86747 5.18746,3.012361 6.3668,5.905767 4.18485,10.267214 -1.78949,3.576992 -7.54583,8.519805 -9.42878,8.096252 -1.49365,-0.335984 -39.85073,-8.396192 -48.8606,-10.267378 -5.60256,-1.163547 -10.395408,-2.178095 -10.650787,-2.254549 -1.234307,-0.369522 -0.510143,1.039718 4.454067,8.667697 2.87096,4.411501 5.82894,8.070266 5.89625,8.327656 0.12823,0.490349 -1.30599,1.36737 -7.319135,1.121321 z"
         id="path1580"
         sodipodi:nodetypes="sccssssssssssssssssss" />
    </g>
    <g
       id="g1454"
       transform="translate(160.17312,-40.302992)" />
    <g
       id="g836"
       transform="translate(-27.55712,-4.3589327)" />
  </g>
</svg>
